<svg width="24" height="25" viewBox="0 0 24 25" fill="none" xmlns="http://www.w3.org/2000/svg">
<path d="M4.644 5.47144H20.544C22.044 5.47144 22.8 6.17944 22.8 7.61944V17.7234C22.8 19.1514 22.044 19.8714 20.544 19.8714H4.644C3.144 19.8714 2.388 19.1514 2.388 17.7234V7.61944C2.388 6.17944 3.144 5.47144 4.644 5.47144ZM12.588 15.7914L20.676 9.15544C20.964 8.91544 21.192 8.36344 20.832 7.87144C20.484 7.37944 19.848 7.36744 19.428 7.66744L12.588 12.2994L5.76 7.66744C5.34 7.36744 4.704 7.37944 4.356 7.87144C3.996 8.36344 4.224 8.91544 4.512 9.15544L12.588 15.7914Z" fill="#0E0F1D"/>
</svg>
