<svg width="16" height="19" viewBox="0 0 16 19" fill="none" xmlns="http://www.w3.org/2000/svg">
<g clip-path="url(#clip0_2_10941)">
<path d="M8.00368 5.20561C5.73225 5.20561 3.90011 7.00913 3.90011 9.24506C3.90011 11.481 5.73225 13.2845 8.00368 13.2845C10.2751 13.2845 12.1073 11.481 12.1073 9.24506C12.1073 7.00913 10.2751 5.20561 8.00368 5.20561ZM8.00368 11.8712C6.53583 11.8712 5.33583 10.6935 5.33583 9.24506C5.33583 7.79663 6.53225 6.61889 8.00368 6.61889C9.47511 6.61889 10.6715 7.79663 10.6715 9.24506C10.6715 10.6935 9.47154 11.8712 8.00368 11.8712ZM13.2322 5.04038C13.2322 5.56421 12.8037 5.98257 12.2751 5.98257C11.743 5.98257 11.318 5.56069 11.318 5.04038C11.318 4.52007 11.7465 4.09819 12.2751 4.09819C12.8037 4.09819 13.2322 4.52007 13.2322 5.04038ZM15.9501 5.99663C15.8894 4.73452 15.5965 3.61655 14.6572 2.69546C13.7215 1.77436 12.5858 1.48608 11.3037 1.4228C9.98225 1.34897 6.02154 1.34897 4.70011 1.4228C3.42154 1.48257 2.28583 1.77085 1.34654 2.69194C0.407258 3.61304 0.117972 4.731 0.0536865 5.99311C-0.0213135 7.29389 -0.0213135 11.1927 0.0536865 12.4935C0.114401 13.7556 0.407258 14.8736 1.34654 15.7947C2.28583 16.7158 3.41797 17.004 4.70011 17.0673C6.02154 17.1412 9.98225 17.1412 11.3037 17.0673C12.5858 17.0076 13.7215 16.7193 14.6572 15.7947C15.593 14.8736 15.8858 13.7556 15.9501 12.4935C16.0251 11.1927 16.0251 7.29741 15.9501 5.99663ZM14.243 13.8892C13.9644 14.5783 13.4251 15.1091 12.7215 15.3869C11.668 15.7982 9.16797 15.7033 8.00368 15.7033C6.8394 15.7033 4.33583 15.7947 3.28583 15.3869C2.58583 15.1126 2.04654 14.5818 1.7644 13.8892C1.34654 12.8521 1.44297 10.3912 1.44297 9.24506C1.44297 8.09897 1.35011 5.63452 1.7644 4.60093C2.04297 3.91186 2.58226 3.381 3.28583 3.10327C4.3394 2.69194 6.8394 2.78686 8.00368 2.78686C9.16797 2.78686 11.6715 2.69546 12.7215 3.10327C13.4215 3.37749 13.9608 3.90835 14.243 4.60093C14.6608 5.63803 14.5644 8.09897 14.5644 9.24506C14.5644 10.3912 14.6608 12.8556 14.243 13.8892Z" fill="#383838"/>
</g>
<defs>
<clipPath id="clip0_2_10941">
<rect width="16" height="18" fill="white" transform="translate(0.00012207 0.248535)"/>
</clipPath>
</defs>
</svg>
