<svg width="16" height="16" viewBox="0 0 16 16" fill="none" xmlns="http://www.w3.org/2000/svg">
<g clip-path="url(#clip0_2_10937)">
<path d="M3.63281 15.2485V5.12807H0.202508V15.2485H3.63281ZM1.9181 3.74546C3.11431 3.74546 3.85889 2.96832 3.85889 1.99716C3.8366 1.0041 3.11436 0.248535 1.9408 0.248535C0.767434 0.248535 0.00012207 1.00412 0.00012207 1.99716C0.00012207 2.96837 0.74452 3.74546 1.89571 3.74546H1.918H1.9181ZM5.53147 15.2485H8.96177V9.59678C8.96177 9.2943 8.98406 8.99214 9.07465 8.77592C9.32263 8.17158 9.88705 7.54566 10.8346 7.54566C12.0759 7.54566 12.5725 8.47374 12.5725 9.83424V15.2485H16.0026V9.44549C16.0026 6.33687 14.3103 4.89047 12.0533 4.89047C10.2028 4.89047 9.39033 5.9048 8.93895 6.59565H8.96185V5.12785H5.53155C5.57657 6.07751 5.53155 15.2483 5.53155 15.2483L5.53147 15.2485Z" fill="#383838"/>
</g>
<defs>
<clipPath id="clip0_2_10937">
<rect width="16" height="15" fill="white" transform="translate(0.00012207 0.248535)"/>
</clipPath>
</defs>
</svg>
