<svg width="14" height="20" viewBox="0 0 14 20" fill="none" xmlns="http://www.w3.org/2000/svg">
<g clip-path="url(#clip0_2_10963)">
<path d="M6.13594 19.1964C4.23281 16.814 0 11.0397 0 7.79639C0 3.86131 3.13396 0.671387 7 0.671387C10.8646 0.671387 14 3.86131 14 7.79639C14 11.0397 9.73438 16.814 7.86406 19.1964C7.41562 19.7642 6.58437 19.7642 6.13594 19.1964ZM7 10.1714C8.28698 10.1714 9.33333 9.10635 9.33333 7.79639C9.33333 6.48643 8.28698 5.42139 7 5.42139C5.71302 5.42139 4.66667 6.48643 4.66667 7.79639C4.66667 9.10635 5.71302 10.1714 7 10.1714Z" fill="#0E0F1D"/>
</g>
<defs>
<clipPath id="clip0_2_10963">
<rect width="14" height="19" fill="white" transform="translate(0 0.671387)"/>
</clipPath>
</defs>
</svg>
