<svg width="24" height="25" viewBox="0 0 24 25" fill="none" xmlns="http://www.w3.org/2000/svg">
<path d="M3.24375 6.0667L5.73984 3.57295C5.91592 3.3961 6.1252 3.25578 6.35567 3.16005C6.58614 3.06432 6.83325 3.01508 7.08281 3.01514C7.5914 3.01514 8.06953 3.21436 8.42812 3.57295L11.1141 6.25889C11.2909 6.43496 11.4312 6.64425 11.527 6.87472C11.6227 7.10519 11.6719 7.3523 11.6719 7.60186C11.6719 8.11045 11.4727 8.58857 11.1141 8.94717L9.15 10.9112C9.60974 11.9246 10.2489 12.8464 11.0367 13.6323C11.8225 14.422 12.7443 15.0635 13.7578 15.5261L15.7219 13.562C15.898 13.3852 16.1072 13.2448 16.3377 13.1491C16.5682 13.0534 16.8153 13.0041 17.0648 13.0042C17.5734 13.0042 18.0516 13.2034 18.4102 13.562L21.0984 16.2456C21.2755 16.422 21.4159 16.6317 21.5117 16.8626C21.6074 17.0934 21.6565 17.341 21.6562 17.5909C21.6562 18.0995 21.457 18.5776 21.0984 18.9362L18.607 21.4276C18.0352 22.0019 17.2453 22.3276 16.4344 22.3276C16.2633 22.3276 16.0992 22.3136 15.9375 22.2854C12.7781 21.7651 9.64453 20.0847 7.11562 17.5581C4.58906 15.0339 2.91094 11.9026 2.38359 8.73389C2.22422 7.76592 2.54531 6.76982 3.24375 6.0667Z" fill="#0E0F1D"/>
</svg>
