<svg width="18" height="15" viewBox="0 0 18 15" fill="none" xmlns="http://www.w3.org/2000/svg">
<g clip-path="url(#clip0_2_10933)">
<path d="M17.9998 1.95343C17.3258 2.2379 16.6108 2.42463 15.8788 2.5074C16.6413 2.072 17.2268 1.38251 17.5025 0.561003C16.7776 0.970811 15.9845 1.25955 15.1575 1.41473C14.4838 0.731012 13.5241 0.303711 12.4619 0.303711C10.4224 0.303711 8.76891 1.87894 8.76891 3.8218C8.76891 4.09758 8.80161 4.36605 8.86454 4.62361C5.79539 4.47685 3.0743 3.07625 1.25286 0.947711C0.935043 1.46732 0.752934 2.07173 0.752934 2.7164C0.752934 3.93701 1.40494 5.0138 2.39579 5.64474C1.80934 5.62724 1.2358 5.47635 0.723051 5.20465C0.72284 5.21938 0.72284 5.23412 0.72284 5.24892C0.72284 6.95351 1.99578 8.37548 3.68511 8.69868C3.1413 8.83958 2.57088 8.8602 2.01743 8.75897C2.48733 10.1567 3.85118 11.1738 5.46711 11.2023C4.20324 12.1458 2.61087 12.7083 0.880762 12.7083C0.582637 12.7083 0.288731 12.6916 -0.000183105 12.6591C1.63409 13.6574 3.57521 14.2398 5.66068 14.2398C12.4534 14.2398 16.1678 8.87887 16.1678 4.2298C16.1678 4.07721 16.1642 3.92549 16.1571 3.77464C16.88 3.27672 17.5041 2.66001 17.9998 1.95343Z" fill="#383838"/>
</g>
<defs>
<clipPath id="clip0_2_10933">
<rect width="18" height="14" fill="white" transform="translate(-0.000183105 0.248535)"/>
</clipPath>
</defs>
</svg>
